<svg width="350" height="350" viewBox="0 0 350 350" fill="none" xmlns="http://www.w3.org/2000/svg">
<g clip-path="url(#clip0_146_26)">
<path d="M51.6637 128.943C29.2638 68.4418 54.7748 43.2332 67.2192 36.931C60.748 75.2482 64.5228 76.8447 67.2192 72.8532C69.7082 47.6446 98.3303 26.2174 108.286 21.1755C99.3258 43.8633 106.627 55.4173 111.397 58.3584C110.152 35.0403 142.508 3.52969 147.486 7.31088C148.481 24.9569 172.374 36.0907 184.196 39.4519L176.108 26.2174C327.929 67.8116 280.018 128.943 289.974 138.396C306.898 158.563 296.196 206.459 288.729 227.886C287.277 228.307 283.876 228.895 281.885 227.886C279.894 227.886 266.122 179.57 259.485 155.412C167.397 190.073 91.4859 158.563 80.2859 155.412C57.886 225.996 59.1304 225.366 57.2637 227.886C55.7704 229.903 52.9082 228.727 51.6637 227.886C27.3972 179.99 47.9303 159.193 51.6637 128.943Z" fill="#282828"/>
<path fill-rule="evenodd" clip-rule="evenodd" d="M48.325 260.209C47.3256 259.197 47.9086 247.567 48.325 241.879C94.4749 235.935 118.081 240.542 138.828 244.591C148.97 246.57 158.429 248.416 169.504 248.831C171.639 249.617 175.344 248.999 182.231 247.849C197.5 245.299 228.414 240.136 292.556 241.879C302.05 242.384 299.843 255.995 297.553 262.737C288.063 265.858 286.233 275.271 284.155 285.953C280.764 303.396 276.714 324.224 237.588 326.575C199.001 326.575 191.688 303.939 186.39 287.541C183.284 277.926 180.87 270.456 173.251 270.954C166.284 271.409 163.845 278.737 160.785 287.934C155.34 304.298 147.927 326.575 109.539 326.575C70.458 325.34 65.3374 304.774 60.6319 285.875C58.1173 275.775 55.7213 266.152 48.325 260.209ZM144.519 258.312C125.03 242.132 91.8414 249.674 77.6831 255.152C49.5746 308.878 108.915 324.679 128.903 316.463C133.9 315.198 166.381 277.906 144.519 258.312ZM210.73 252.624C210.73 252.624 228.844 247.567 261.949 251.36C265.697 251.57 273.567 254.394 275.067 264.001C276.94 276.01 276.316 304.453 255.703 314.566C235.09 324.679 202.609 317.727 195.738 281.067C195.738 255.152 208.856 252.67 210.73 252.624Z" fill="#282828"/>
<path d="M48.325 241.879L48.3122 241.779L48.2312 241.79L48.2253 241.871L48.325 241.879ZM48.325 260.209L48.2534 260.279L48.2624 260.287L48.325 260.209ZM138.828 244.591L138.809 244.689L138.809 244.689L138.828 244.591ZM169.504 248.831L169.538 248.738L169.523 248.732L169.507 248.731L169.504 248.831ZM182.231 247.849L182.247 247.947L182.247 247.947L182.231 247.849ZM292.556 241.879L292.561 241.779L292.559 241.779L292.556 241.879ZM297.553 262.737L297.584 262.832L297.632 262.816L297.648 262.769L297.553 262.737ZM284.155 285.953L284.254 285.972L284.254 285.972L284.155 285.953ZM237.588 326.575V326.676L237.594 326.675L237.588 326.575ZM186.39 287.541L186.485 287.51L186.485 287.51L186.39 287.541ZM173.251 270.954L173.245 270.854L173.245 270.854L173.251 270.954ZM160.785 287.934L160.69 287.903L160.69 287.903L160.785 287.934ZM109.539 326.575L109.536 326.675H109.539V326.575ZM60.6319 285.875L60.5348 285.899L60.5348 285.899L60.6319 285.875ZM77.6831 255.152L77.647 255.059L77.6119 255.073L77.5944 255.106L77.6831 255.152ZM144.519 258.312L144.585 258.238L144.582 258.236L144.519 258.312ZM128.903 316.463L128.878 316.366L128.871 316.367L128.865 316.37L128.903 316.463ZM261.949 251.36L261.938 251.459L261.944 251.46L261.949 251.36ZM210.73 252.624L210.732 252.724L210.744 252.723L210.756 252.72L210.73 252.624ZM275.067 264.001L274.968 264.016L274.968 264.016L275.067 264.001ZM255.703 314.566L255.659 314.476L255.659 314.476L255.703 314.566ZM195.738 281.067H195.638V281.076L195.64 281.085L195.738 281.067ZM48.2253 241.871C48.017 244.717 47.767 249.048 47.6941 252.796C47.6576 254.669 47.6654 256.398 47.745 257.724C47.7848 258.386 47.8427 258.95 47.9227 259.382C47.9626 259.598 48.0086 259.783 48.0615 259.932C48.1137 260.079 48.176 260.2 48.2539 260.279L48.3961 260.138C48.3491 260.091 48.2988 260.003 48.25 259.865C48.2019 259.73 48.1582 259.556 48.1193 259.346C48.0415 258.926 47.9842 258.371 47.9447 257.712C47.8655 256.394 47.8576 254.671 47.8941 252.8C47.9669 249.057 48.2166 244.729 48.4248 241.886L48.2253 241.871ZM138.848 244.493C118.095 240.443 94.4766 235.834 48.3122 241.779L48.3378 241.978C94.4732 236.036 118.068 240.642 138.809 244.689L138.848 244.493ZM169.507 248.731C158.441 248.317 148.99 246.472 138.848 244.493L138.809 244.689C148.95 246.668 158.416 248.516 169.5 248.931L169.507 248.731ZM182.214 247.75C178.769 248.325 176.125 248.767 174.076 248.966C172.024 249.166 170.583 249.122 169.538 248.738L169.469 248.925C170.56 249.327 172.039 249.366 174.095 249.165C176.153 248.965 178.805 248.522 182.247 247.947L182.214 247.75ZM292.559 241.779C228.409 240.036 197.489 245.199 182.214 247.75L182.247 247.947C197.512 245.398 228.419 240.236 292.553 241.979L292.559 241.779ZM297.648 262.769C298.795 259.392 299.924 254.289 299.573 249.961C299.398 247.797 298.853 245.816 297.744 244.343C296.633 242.865 294.962 241.907 292.561 241.779L292.551 241.979C294.897 242.103 296.511 243.036 297.584 244.463C298.661 245.894 299.201 247.833 299.374 249.977C299.721 254.267 298.601 259.34 297.458 262.705L297.648 262.769ZM284.254 285.972C285.293 280.628 286.268 275.617 288.165 271.552C290.06 267.492 292.871 264.382 297.584 262.832L297.522 262.642C292.745 264.213 289.896 267.369 287.984 271.467C286.074 275.559 285.095 280.596 284.057 285.934L284.254 285.972ZM237.594 326.675C257.175 325.498 267.999 319.696 274.349 311.987C280.695 304.283 282.558 294.69 284.254 285.972L284.057 285.934C282.361 294.659 280.503 304.201 274.195 311.86C267.891 319.513 257.127 325.301 237.582 326.476L237.594 326.675ZM186.295 287.572C188.943 295.768 192.101 305.548 199.433 313.276C206.77 321.009 218.273 326.675 237.588 326.675V326.475C218.316 326.475 206.87 320.824 199.578 313.139C192.282 305.449 189.135 295.712 186.485 287.51L186.295 287.572ZM173.258 271.053C175.145 270.93 176.704 271.3 178.032 272.07C179.36 272.84 180.463 274.015 181.429 275.51C183.364 278.503 184.74 282.76 186.295 287.572L186.485 287.51C184.934 282.707 183.55 278.422 181.597 275.401C180.619 273.889 179.496 272.688 178.132 271.897C176.767 271.105 175.167 270.728 173.245 270.854L173.258 271.053ZM160.88 287.966C162.411 283.364 163.782 279.245 165.638 276.218C167.491 273.197 169.817 271.278 173.258 271.053L173.245 270.854C169.718 271.084 167.341 273.057 165.468 276.113C163.597 279.164 162.219 283.308 160.69 287.903L160.88 287.966ZM109.539 326.675C128.754 326.675 140.233 321.099 147.588 313.461C154.938 305.827 158.158 296.145 160.88 287.966L160.69 287.903C157.967 296.087 154.758 305.726 147.444 313.322C140.134 320.913 128.712 326.475 109.539 326.475V326.675ZM60.5348 285.899C62.8866 295.344 65.3474 305.235 72.1196 312.915C78.8969 320.6 89.9774 326.057 109.536 326.675L109.542 326.476C90.0194 325.858 78.9992 320.414 72.2696 312.783C65.535 305.146 63.0827 295.304 60.7289 285.85L60.5348 285.899ZM48.2624 260.287C55.6276 266.205 58.0182 275.791 60.5348 285.899L60.7289 285.85C58.2165 275.76 55.8151 266.099 48.3877 260.131L48.2624 260.287ZM77.7191 255.246C84.7903 252.51 96.6163 249.257 109.106 248.71C121.598 248.163 134.738 250.322 144.455 258.389L144.582 258.236C134.811 250.122 121.612 247.962 109.098 248.51C96.5816 249.059 84.7341 252.317 77.647 255.059L77.7191 255.246ZM128.865 316.37C123.89 318.415 116.454 318.969 108.529 317.806C100.607 316.642 92.2089 313.763 85.314 308.954C78.4201 304.146 73.0311 297.41 71.1148 288.532C69.1984 279.653 70.752 268.616 77.7717 255.199L77.5944 255.106C70.5599 268.552 68.9904 279.637 70.9194 288.574C72.8485 297.512 78.2735 304.287 85.1996 309.118C92.1247 313.948 100.553 316.836 108.5 318.003C116.445 319.17 123.921 318.619 128.941 316.555L128.865 316.37ZM144.452 258.387C149.893 263.264 151.953 269.24 151.904 275.486C151.856 281.736 149.696 288.259 146.694 294.216C143.692 300.173 139.851 305.559 136.449 309.534C134.748 311.521 133.158 313.155 131.839 314.33C131.179 314.918 130.588 315.39 130.085 315.734C129.581 316.08 129.173 316.291 128.878 316.366L128.927 316.56C129.257 316.476 129.689 316.248 130.198 315.899C130.71 315.548 131.308 315.071 131.972 314.479C133.3 313.297 134.896 311.656 136.601 309.664C140.012 305.679 143.862 300.28 146.872 294.306C149.882 288.334 152.055 281.78 152.104 275.488C152.153 269.191 150.075 263.158 144.585 258.238L144.452 258.387ZM261.961 251.26C245.401 249.363 232.589 249.679 223.916 250.47C219.579 250.865 216.277 251.379 214.059 251.795C212.95 252.002 212.111 252.185 211.55 252.317C211.269 252.382 211.058 252.435 210.916 252.471C210.845 252.489 210.792 252.503 210.757 252.513C210.739 252.518 210.725 252.521 210.716 252.524C210.712 252.525 210.709 252.526 210.706 252.526C210.705 252.527 210.704 252.527 210.704 252.527C210.703 252.527 210.703 252.527 210.703 252.527C210.703 252.527 210.703 252.527 210.73 252.624C210.756 252.72 210.756 252.72 210.757 252.72C210.757 252.72 210.757 252.72 210.757 252.72C210.758 252.72 210.758 252.72 210.759 252.719C210.762 252.719 210.765 252.718 210.769 252.717C210.778 252.714 210.791 252.711 210.808 252.706C210.843 252.697 210.896 252.683 210.966 252.665C211.106 252.629 211.316 252.577 211.595 252.511C212.154 252.381 212.989 252.198 214.096 251.991C216.308 251.577 219.604 251.064 223.934 250.669C232.594 249.88 245.392 249.564 261.938 251.459L261.961 251.26ZM275.165 263.986C273.657 254.316 265.731 251.472 261.955 251.26L261.944 251.46C265.663 251.669 273.478 254.472 274.968 264.016L275.165 263.986ZM255.747 314.656C266.09 309.582 271.412 299.911 273.914 290.019C276.417 280.128 276.104 270.001 275.165 263.986L274.968 264.016C275.903 270.011 276.215 280.11 273.72 289.97C271.226 299.83 265.929 309.438 255.659 314.476L255.747 314.656ZM195.64 281.085C199.081 299.445 208.939 310.377 220.527 315.448C232.111 320.517 245.416 319.725 255.747 314.656L255.659 314.476C245.378 319.521 232.135 320.309 220.608 315.265C209.085 310.222 199.267 299.348 195.837 281.048L195.64 281.085ZM210.727 252.524C209.766 252.548 205.991 253.189 202.457 257.077C198.922 260.967 195.638 268.093 195.638 281.067H195.838C195.838 268.126 199.113 261.054 202.605 257.212C206.098 253.369 209.819 252.746 210.732 252.724L210.727 252.524Z" fill="#260F0F"/>
</g>
<defs>
<clipPath id="clip0_146_26">
<rect width="350" height="350" fill="white"/>
</clipPath>
</defs>
</svg>
